<svg xmlns="http://www.w3.org/2000/svg" viewBox="0 0 100 100" width="512" height="512" role="img" aria-label="hatid logo">
  <rect x="0" y="0" width="100" height="100" rx="22" ry="22" fill="#479c6b"></rect>
  <path transform="translate(6.735 75.794) scale(0.082)" d="M303-236L303-236Q230-236 171.500-259.500Q113-283 52-328L52-328L90-384Q130-356 163-338Q196-320 229.500-312Q263-304 305-304L305-304Q367-304 426.500-319Q486-334 530-348L530-348Q575-362 630-376Q685-390 745-390L745-390Q819-390 878-366.500Q937-343 998-298L998-298L956-244Q922-270 889-287Q856-304 819-313Q782-322 732-322L732-322Q686-322 638-308.500Q590-295 551-283L551-283Q502-267 435.500-251.500Q369-236 303-236Z" fill="#fdfbf1"></path>
</svg>