<svg xmlns="http://www.w3.org/2000/svg" viewBox="0 0 100 100" width="512" height="512" role="img" aria-label="susi logo">
  <rect x="0" y="0" width="100" height="100" rx="22" ry="22" fill="#479c6b"></rect>
  <path transform="translate(13.163 70.437) scale(0.082)" d="M553 10L512 10L512-58L544-58Q621-58 677.500-70.500Q734-83 765.500-112.500Q797-142 797-192L797-192Q797-211 786.500-234.500Q776-258 746.500-275Q717-292 659-292L659-292L585-292L585-360L631-360Q683-360 715.500-376.500Q748-393 763-418.500Q778-444 778-472L778-472Q778-511 753.500-538.500Q729-566 674-566L674-566Q622-566 575.500-530Q529-494 490-435L490-435Q430-345 371.500-234.500Q313-124 240 0L240 0L173 0L171-566L19-566L19-634L147-634Q194-634 215-624.500Q236-615 242-596.500Q248-578 248-550L248-550L250-151L252-151Q300-250 340-324Q380-398 422-463L422-463Q474-543 536.500-588.500Q599-634 682-634L682-634Q762-634 808.500-592Q855-550 855-482L855-482Q855-435 836-397.500Q817-360 767-337L767-337Q813-324 843.500-284.500Q874-245 874-192L874-192Q874-96 798.500-43Q723 10 553 10L553 10ZM824 138L824 138Q802 138 787 124Q772 110 772 82L772 82Q772 53 787 39.500Q802 26 824 26L824 26Q844 26 859.500 39.500Q875 53 875 82L875 82Q875 110 859.500 124Q844 138 824 138Z" fill="#fdfbf1"></path>
</svg>