<svg xmlns="http://www.w3.org/2000/svg" viewBox="0 0 100 100" width="100" height="100" role="img" aria-label="Baybayin bayad glyph (ba)">
  <path transform="translate(8.192 81.147) scale(0.098)" d="M239 0L239 0Q162 0 113-47.500Q64-95 64-189L64-189Q64-246 82.500-308Q101-370 136.500-428Q172-486 222.500-532.500Q273-579 337-606.500Q401-634 477-634L477-634Q543-634 599-602.500Q655-571 697.500-518.500Q740-466 763.500-401.500Q787-337 787-270L787-270Q787-189 758.500-128.500Q730-68 680-34Q630 0 565 0L565 0Q507 0 476-20.500Q445-41 422-69L422-69Q387-40 342.500-20Q298 0 239 0ZM244-68L244-68Q288-68 324-84.500Q360-101 388-125.500Q416-150 436-172L436-172Q459-125 487-96.500Q515-68 558-68L558-68Q609-68 643-98.500Q677-129 693.500-176Q710-223 710-271L710-271Q710-323 693-375Q676-427 644.500-470.500Q613-514 569.500-540Q526-566 473-566L473-566Q402-566 341.500-532.500Q281-499 236-442.500Q191-386 166-317.500Q141-249 141-178L141-178Q141-130 168-99Q195-68 244-68Z" fill="currentColor"></path>
</svg>