<svg xmlns="http://www.w3.org/2000/svg" viewBox="0 0 100 100" width="512" height="512" role="img" aria-label="daloy logo">
  <rect x="0" y="0" width="100" height="100" rx="22" ry="22" fill="#2198a4"></rect>
  <path transform="translate(6.818 77.154) scale(0.082)" d="M290-80L290-80Q201-80 147.500-127Q94-174 94-251L94-251Q94-308 118-357.500Q142-407 183-444L183-444Q149-456 116.500-474Q84-492 51-517L51-517L89-573Q129-545 162-527Q195-509 228.500-501Q262-493 304-493L304-493Q366-493 425.500-508Q485-523 529-537L529-537Q574-551 629-565Q684-579 744-579L744-579Q818-579 877-555.500Q936-532 997-487L997-487L955-433Q921-459 888-476Q855-493 818-502Q781-511 731-511L731-511Q685-511 637-497.500Q589-484 550-472L550-472Q501-456 434.500-440.500Q368-425 302-425L302-425Q281-425 261-427L261-427Q219-397 195-352Q171-307 171-253L171-253Q171-205 201-176.500Q231-148 291-148L291-148Q350-148 405-159Q460-170 527-190L527-190Q577-205 630.500-218.500Q684-232 744-232L744-232Q818-232 877-208.500Q936-185 997-140L997-140L955-86Q921-112 888-129Q855-146 818-155Q781-164 731-164L731-164Q685-164 639-151Q593-138 550-126L550-126Q496-111 430.500-95.500Q365-80 290-80Z" fill="#fdfbf1"></path>
</svg>