<svg xmlns="http://www.w3.org/2000/svg" viewBox="0 0 100 100" width="512" height="512" role="img" aria-label="tabang logo reversed">
  <rect x="0" y="0" width="100" height="100" rx="22" ry="22" fill="#fffcfb"></rect>
  <path transform="translate(8.342 76) scale(0.082)" d="M221 0L142 0Q151-74 176.500-148.500Q202-223 242-291L242-291Q221-281 203-277Q185-273 168-273L168-273Q122-273 95-299Q68-325 68-368L68-368Q68-415 100-450L100-450L152-406Q145-397 140.500-389Q136-381 136-371L136-371Q136-341 173-341L173-341Q203-341 249.500-364.500Q296-388 372-458L372-458Q455-534 557-582.500Q659-631 778-631L778-631Q822-631 864.500-623Q907-615 943-598L943-598L914-536Q892-547 856-555Q820-563 778-563L778-563Q718-563 649-542Q580-521 511.500-477.500Q443-434 383.500-367Q324-300 281-208.500Q238-117 221 0L221 0Z" fill="#dcb13b"></path>
</svg>